<svg xmlns="http://www.w3.org/2000/svg" width="150" height="54.72" viewBox="0 0 150 54.72"><defs><style>.cls-1{fill:#ff0013;}.cls-2,.cls-5{fill:#fff;}.cls-2,.cls-3{fill-rule:evenodd;}.cls-3{fill:#2e3092;}.cls-4{fill:#231f20;}.cls-5{stroke:#231f20;stroke-miterlimit:10;stroke-width:0.15px;}</style></defs><title>logo-lg</title><g id="Layer_2" data-name="Layer 2"><g id="Layer_1-2" data-name="Layer 1"><rect class="cls-1" x="4.24" y="4.33" width="46.03" height="46.04"/><path class="cls-2" d="M25.7,47.33c6.5-5.77,2.58-13.17-.75-19.59l-.1-.17c-3.6-7.19-6.38-14.17,4.39-20-6.5,5.78-2.61,13.17.73,19.58l.09.16c3.58,7.19,6.39,14.18-4.37,20m5.38-20.1c-.85-1.66-1.75-3.32-2.47-4.95-2.48-5.68-3.8-11.4,3.65-16.29-5.75,6.83,1.4,15.43,4.13,21.8,2.88,6.73,3.81,13.08-6.85,17.63,6.39-4.48,5.2-10.83,2.38-16.55-.2-.39-.37-.77-.57-1.15Zm-7.19.43c.85,1.67,1.74,3.33,2.45,5,2.47,5.68,3.8,11.4-3.65,16.28,5.8-6.9-1.48-15.36-4.13-21.79C15.74,20.36,14.73,14,25.4,9.47,19,14,20.2,20.3,23,26c.19.38.38.77.58,1.13Z"/><path class="cls-2" d="M33.45,7.35a13.17,13.17,0,0,1,1.3,5.8v.08h0v.09a13.21,13.21,0,0,1-1.3,5.81,6.62,6.62,0,0,0,3.62-5.59v-.23h0v0h0v0h0v0h0v0h0v-.22a6.62,6.62,0,0,0-3.62-5.59M35,19.67a8.29,8.29,0,0,0,3.8-6.34,1.33,1.33,0,0,1,0-.2h0a.06.06,0,0,0,0,0A8.28,8.28,0,0,0,35,6.75c3.33.61,6.38,2.7,6.52,6v.49h0v0h0v0a2.57,2.57,0,0,1,0,.27c-.13,3.34-3.18,5.44-6.51,6"/><path class="cls-2" d="M21.62,36.45a13.16,13.16,0,0,0-1.29,5.81v.07h0v.09a13.13,13.13,0,0,0,1.29,5.8A6.57,6.57,0,0,1,18,42.66a1.34,1.34,0,0,0,0-.23v0h0v0h0v0h0v0h0V42a6.62,6.62,0,0,1,3.61-5.59M20.06,48.78a8.3,8.3,0,0,1-3.81-6.35v-.2h0v0a8.28,8.28,0,0,1,3.81-6.35c-3.34.59-6.38,2.69-6.52,6,0,.09,0,.18,0,.27v0h0v.19h0v0h0v0a2.46,2.46,0,0,0,0,.26c.13,3.34,3.19,5.44,6.52,6"/><path class="cls-3" d="M0,0H54.72V54.72H0ZM2.6,2.59H52.13V52.11H2.6Z"/><path class="cls-1" d="M72.73,19.56a1.64,1.64,0,0,1-3.2,0,1.64,1.64,0,0,1,3.2,0"/><path class="cls-1" d="M133.19,6.16h0a1.2,1.2,0,0,0,.4.22h0l.22.06a1.52,1.52,0,0,0,.3,0,1.61,1.61,0,0,0,1-.32,1.06,1.06,0,0,0,.45-.94,1.15,1.15,0,0,0-.4-.9,1.57,1.57,0,0,0-1-.34,1.6,1.6,0,0,0-1,.32,1,1,0,0,0-.45.92,1.26,1.26,0,0,0,.42.92Z"/><path class="cls-1" d="M79.83,10.28l-.21.18-.21.23,0,0a2.21,2.21,0,0,0-.19.4l0,.06v.17l0,.14v3H76.62l.06.44a2.54,2.54,0,0,0,.25.83,2.07,2.07,0,0,0,.57.67h0l.44.29.48.21h0a3.42,3.42,0,0,0,1.1.18A3.18,3.18,0,0,0,80.63,17a3.11,3.11,0,0,0,1-.53v0a2.8,2.8,0,0,0,.53-.7v-.05a2.52,2.52,0,0,0,.14-.81V9.08l-2.26,1Z"/><path class="cls-1" d="M147.91,8.66a1.5,1.5,0,0,0-.48.43l0,0-.06.15-.07.18v2h-2.21V8.26l-1.95,1a.81.81,0,0,0-.33.27l-.17.19-.12.26,0,.18v1.23H141V9.06l-1.81,1a1.43,1.43,0,0,0-.5.28l0,0-.39.54v.47h-1.61V6.09l-.81.7a2.4,2.4,0,0,1-.66.41l-.33.12-.14,0-.17,0h-2.09a2.39,2.39,0,0,0-1.64.62h0l-.2.23-.25.42v0a.33.33,0,0,0-.06.13,1.93,1.93,0,0,0-.07.24,2,2,0,0,0-.05.26v.13a2.1,2.1,0,0,0,.59,1.43h0a2.26,2.26,0,0,0,.82.54H86.88V5.18l0-.18,0-.18-.07-.17a1.17,1.17,0,0,0-.41-.54L86.16,4,86,3.84,84,2.69V14.22h64.2l.5,0,.29-.08h0a1.09,1.09,0,0,0,.26-.14,1.23,1.23,0,0,0,.36-.46v0l.06-.45V7.54ZM134.28,9.9h-1.21a.62.62,0,0,1-.4-.14.44.44,0,0,1-.17-.34.42.42,0,0,1,.17-.31.61.61,0,0,1,.43-.15h1.17Z"/><path class="cls-1" d="M77.12,13.27V6.43L76,7.32l-.36.26-.35.17-.37.11a5.27,5.27,0,0,1-.76.06,4.58,4.58,0,0,0-.8.05,1.26,1.26,0,0,0-.4.06l-.12,0-.1,0a2.37,2.37,0,0,0-.91.48,6.69,6.69,0,0,0-.72.68,2,2,0,0,0-.28.35l-.25.4-.14.37-.15.47-.07.44,0,.5V14a.73.73,0,0,1-.42.63,1.93,1.93,0,0,1-1,.26,2.35,2.35,0,0,1-.56-.06,1.42,1.42,0,0,1-.4-.18l0,0h0a.66.66,0,0,1-.4-.62V11.47l-.38-.35-.45.19-.27.18-.34.26-.23.21-.27.25,0,0a1.31,1.31,0,0,0-.22.3l-.3.44-.2.5-.09.5,0,.56v0a2.77,2.77,0,0,0,1.37,2.34,4.91,4.91,0,0,0,2.87.84,4.36,4.36,0,0,0,1-.12,6,6,0,0,0,1.06-.37h0l.2-.1a1.93,1.93,0,0,0,.23-.15,2.63,2.63,0,0,0,.43-.29,4.79,4.79,0,0,0,.68-.64h0A2.35,2.35,0,0,0,73,14.53V11.8c0-.39,0-.48,0-.5v-.06a.34.34,0,0,1,.08-.16h0a1.43,1.43,0,0,1,.19-.22l0,0,.07-.08.09-.08.22-.12.26-.06.3,0h.08v2.82Z"/><path class="cls-1" d="M68.91,19.6a1.65,1.65,0,0,1-3.21,0,1.65,1.65,0,0,1,3.21,0"/><path class="cls-1" d="M64.13,32.94l4.64-.28a3.27,3.27,0,0,0,.61,1.63,2.61,2.61,0,0,0,2.15.92,2.47,2.47,0,0,0,1.61-.47,1.27,1.27,0,0,0,0-2.11,6.31,6.31,0,0,0-2.49-.87,11.05,11.05,0,0,1-4.57-1.82A3.62,3.62,0,0,1,64.72,27a3.78,3.78,0,0,1,.7-2.18,4.58,4.58,0,0,1,2.13-1.61,10.16,10.16,0,0,1,3.88-.59A8.23,8.23,0,0,1,76,23.73a4.52,4.52,0,0,1,1.89,3.39l-4.6.26a2.26,2.26,0,0,0-.76-1.46,2.55,2.55,0,0,0-1.62-.47,2,2,0,0,0-1.28.34,1,1,0,0,0-.43.84.83.83,0,0,0,.36.64,4.21,4.21,0,0,0,1.64.55,20.9,20.9,0,0,1,4.57,1.32,4.81,4.81,0,0,1,2,1.65A4.11,4.11,0,0,1,78.43,33a4.44,4.44,0,0,1-.84,2.65,5.12,5.12,0,0,1-2.35,1.83,9.91,9.91,0,0,1-3.8.63c-2.68,0-4.53-.48-5.56-1.46a5.69,5.69,0,0,1-1.76-3.73"/><path class="cls-1" d="M90.59,35.42H85.06l-.77,2.46h-5l5.92-15h5.31l5.93,15h-5.1Zm-1-3.24-1.74-5.37-1.73,5.37Z"/><polygon class="cls-1" points="98.05 22.93 110.11 22.93 110.11 26.14 102.95 26.14 102.95 28.76 109.05 28.76 109.05 31.78 102.95 31.78 102.95 37.88 98.05 37.88 98.05 22.93"/><path class="cls-1" d="M120.35,35.42H114.8L114,37.88h-5l5.93-15h5.32l5.92,15h-5.1Zm-1-3.24-1.74-5.37-1.73,5.37Z"/><path class="cls-1" d="M127.85,37.88v-15H136a12.26,12.26,0,0,1,3.46.36,3.66,3.66,0,0,1,1.92,1.37,4.38,4.38,0,0,1,.18,4.57A4.2,4.2,0,0,1,140,30.69a6.18,6.18,0,0,1-1.72.59,5.21,5.21,0,0,1,1.28.54,4.3,4.3,0,0,1,.77.8,5.24,5.24,0,0,1,.69.92l2.35,4.34h-5.5l-2.6-4.57a3.34,3.34,0,0,0-.89-1.15,2.14,2.14,0,0,0-1.2-.36h-.43v6.08Zm4.9-8.89h2.05a8.26,8.26,0,0,0,1.3-.21,1.31,1.31,0,0,0,.78-.47,1.33,1.33,0,0,0,.32-.88,1.35,1.35,0,0,0-.49-1.1,3,3,0,0,0-1.82-.39h-2.14Z"/><rect class="cls-1" x="145.12" y="22.93" width="4.88" height="14.96"/><path class="cls-4" d="M67.75,45.76a11.57,11.57,0,0,0,.15,1.5c.08.53.19,1.08.34,1.67.23-.49.45-1,.63-1.45a12.79,12.79,0,0,0,.43-1.39L68.8,46l.06-.16.22,0,.55,0,.32,0,.44,0-.05.16-.49.11c-.48.88-.85,1.62-1.1,2.21a7,7,0,0,0-.48,1.35l-.66.19c0-.24-.06-.58-.13-1s-.17-1-.31-1.68c-.3.53-.57,1-.76,1.43A6,6,0,0,0,66,49.65l-.63.19c-.1-.79-.2-1.51-.31-2.16s-.22-1.18-.32-1.6l-.5-.11.06-.16.25,0,.66,0,.68,0,.25,0,0,.16-.48.11a9.82,9.82,0,0,0,.13,1.46c.07.48.16,1,.27,1.4l.19-.39a6.12,6.12,0,0,0,.87-2.26v-.09a.81.81,0,0,0,0-.16Z"/><path class="cls-4" d="M71.38,46.88a.72.72,0,0,1,.57.21.9.9,0,0,1,.19.62,2.13,2.13,0,0,1-.56,1.5,1.75,1.75,0,0,1-1.32.62.65.65,0,0,1-.53-.21,1,1,0,0,1-.18-.62,2.53,2.53,0,0,1,.17-.89,2,2,0,0,1,.48-.71,1.8,1.8,0,0,1,.58-.37,1.56,1.56,0,0,1,.61-.14m-.06.94a.88.88,0,0,0-.1-.46.28.28,0,0,0-.27-.14c-.18,0-.33.14-.44.44a3.51,3.51,0,0,0-.17,1.21.81.81,0,0,0,.09.47.26.26,0,0,0,.25.15c.19,0,.34-.15.45-.45a3.53,3.53,0,0,0,.17-1.23"/><path class="cls-4" d="M74.55,47.88a.54.54,0,0,0-.13-.18.14.14,0,0,0-.12,0c-.16,0-.32.19-.51.57a4.59,4.59,0,0,0-.37,1.37c-.11,0-.26.07-.44.14l-.36.12c.11-.47.19-.9.25-1.3a6.8,6.8,0,0,0,.11-.88.23.23,0,0,0,0-.13s0,0-.06,0a.34.34,0,0,0-.15.07l-.21.2-.12-.11A3.52,3.52,0,0,1,73,47.1a1,1,0,0,1,.48-.22.22.22,0,0,1,.18.08.33.33,0,0,1,.05.22,3.78,3.78,0,0,1,0,.43c0,.18-.08.4-.14.67h0a4.48,4.48,0,0,1,.63-1c.2-.26.38-.38.53-.38A.25.25,0,0,1,75,47a.41.41,0,0,1,.07.23.56.56,0,0,1-.12.36,1.39,1.39,0,0,1-.36.33"/><path class="cls-4" d="M77.64,45.46a2.8,2.8,0,0,0-.35-.19,1.25,1.25,0,0,0-.32-.06.38.38,0,0,0-.33.16,1.4,1.4,0,0,0-.23.57c-.14.64-.27,1.26-.36,1.89A11,11,0,0,0,75.9,49a.13.13,0,0,0,0,.09s0,0,.05,0a.21.21,0,0,0,.1-.06,1,1,0,0,0,.18-.17l.13.11a3.54,3.54,0,0,1-.58.57.86.86,0,0,1-.48.2.21.21,0,0,1-.18-.08.37.37,0,0,1-.06-.24,6.1,6.1,0,0,1,.06-.62c0-.3.1-.66.18-1.1a12.54,12.54,0,0,1,.29-1.32,2.38,2.38,0,0,1,.3-.65,2.42,2.42,0,0,1,.69-.7,1.54,1.54,0,0,1,.78-.26.42.42,0,0,1,.27.07.26.26,0,0,1,.11.22.34.34,0,0,1,0,.16.59.59,0,0,1-.11.16"/><path class="cls-4" d="M80.8,45.46a3.48,3.48,0,0,0-.34-.19,1.18,1.18,0,0,0-.31-.05.44.44,0,0,0-.35.16,1.81,1.81,0,0,0-.22.59c-.16.68-.27,1.32-.37,1.92s-.14,1-.14,1.13a.15.15,0,0,0,0,.1.09.09,0,0,0,0,0,.16.16,0,0,0,.12-.05s.1-.09.18-.18l.14.12a3.42,3.42,0,0,1-.57.57.87.87,0,0,1-.47.21.2.2,0,0,1-.19-.09.42.42,0,0,1-.05-.26,6.19,6.19,0,0,1,.09-.75l0-.09a4.13,4.13,0,0,1-.74.87,1.17,1.17,0,0,1-.64.32.31.31,0,0,1-.24-.1.72.72,0,0,1-.07-.32,2.74,2.74,0,0,1,.52-1.73,2.15,2.15,0,0,1,1.46-.75,2.73,2.73,0,0,1,.72-1.49,1.63,1.63,0,0,1,1.19-.61.46.46,0,0,1,.26.08.26.26,0,0,1,.1.22.6.6,0,0,1,0,.16c0,.05-.06.1-.12.18m-2.17,1.91-.25,0-.19,0a.43.43,0,0,0-.27.08.53.53,0,0,0-.17.26,4.3,4.3,0,0,0-.2.72,3.92,3.92,0,0,0-.09.65.29.29,0,0,0,0,.16.08.08,0,0,0,.09.06c.15,0,.33-.19.57-.57a3.72,3.72,0,0,0,.48-1.31"/><path class="cls-4" d="M84.61,46.66l-.06,0a.56.56,0,0,0-.21-.43.7.7,0,0,0-.47-.14,1,1,0,0,0-.89.62,3.17,3.17,0,0,0-.37,1.59,1.35,1.35,0,0,0,.29.89,1,1,0,0,0,.76.31,1.6,1.6,0,0,0,.52-.08,2.08,2.08,0,0,0,.52-.24l0,.29a3.31,3.31,0,0,1-.71.32,2.71,2.71,0,0,1-.79.1,1.45,1.45,0,0,1-1.06-.35,1.47,1.47,0,0,1-.36-1.08,2.62,2.62,0,0,1,.73-1.88,2.42,2.42,0,0,1,1.81-.77,1.37,1.37,0,0,1,.59.1.29.29,0,0,1,.2.28.35.35,0,0,1-.12.23,1.72,1.72,0,0,1-.35.28"/><path class="cls-4" d="M87.79,45.46a2,2,0,0,0-.35-.19,1.1,1.1,0,0,0-.31-.06.39.39,0,0,0-.34.16,1.51,1.51,0,0,0-.23.57c-.14.64-.26,1.26-.36,1.89a11.54,11.54,0,0,0-.14,1.2.12.12,0,0,0,0,.09s0,0,.06,0a.24.24,0,0,0,.1-.06,1.43,1.43,0,0,0,.17-.17l.14.11a4.25,4.25,0,0,1-.59.57.81.81,0,0,1-.48.2.21.21,0,0,1-.17-.08.37.37,0,0,1-.06-.24,4,4,0,0,1,.07-.62c0-.3.09-.66.17-1.1a12.16,12.16,0,0,1,.3-1.32,2.37,2.37,0,0,1,.3-.65,2.51,2.51,0,0,1,.69-.7,1.56,1.56,0,0,1,.79-.26.42.42,0,0,1,.27.07.25.25,0,0,1,.09.22.43.43,0,0,1,0,.16.51.51,0,0,1-.12.16"/><path class="cls-4" d="M89.61,46.91a12.42,12.42,0,0,0-.28,1.24,6.16,6.16,0,0,0-.1.88.41.41,0,0,0,0,.1.08.08,0,0,0,.06,0,.15.15,0,0,0,.1-.05l.19-.18.12.12a3,3,0,0,1-.57.57.87.87,0,0,1-.48.21.19.19,0,0,1-.18-.09.41.41,0,0,1-.06-.26,5.93,5.93,0,0,1,.11-.75v-.09a4.15,4.15,0,0,1-.75.87,1.11,1.11,0,0,1-.64.32.3.3,0,0,1-.23-.1.64.64,0,0,1-.07-.32,3,3,0,0,1,.27-1.34A2.13,2.13,0,0,1,88,47.2a2.17,2.17,0,0,1,.53-.22,3.27,3.27,0,0,1,.74-.06h.36m-.83.46-.25,0-.17,0a.49.49,0,0,0-.3.08.43.43,0,0,0-.15.26,3.67,3.67,0,0,0-.22.72,4.51,4.51,0,0,0-.07.65.24.24,0,0,0,0,.16.08.08,0,0,0,.08.06c.15,0,.33-.19.57-.57a3.59,3.59,0,0,0,.48-1.31"/><path class="cls-4" d="M91.75,47.62a1.38,1.38,0,0,0-.29-.3.49.49,0,0,0-.28-.09.3.3,0,0,0-.22.06.21.21,0,0,0-.09.18c0,.09.09.22.27.41,0,0,.06,0,.06.06a1.49,1.49,0,0,1,.35.46.78.78,0,0,1,.1.39.94.94,0,0,1-.4.73,1.48,1.48,0,0,1-.93.31.58.58,0,0,1-.37-.09.29.29,0,0,1-.13-.26.47.47,0,0,1,.06-.21,1.86,1.86,0,0,1,.23-.25,1.17,1.17,0,0,0,.3.36.56.56,0,0,0,.35.13.36.36,0,0,0,.22-.08.25.25,0,0,0,.08-.19A.46.46,0,0,0,91,49a1.14,1.14,0,0,0-.23-.24l0,0a1.25,1.25,0,0,1-.5-.85.9.9,0,0,1,.39-.72,1.38,1.38,0,0,1,.89-.31.69.69,0,0,1,.37.09.32.32,0,0,1,.13.25.33.33,0,0,1-.08.21.71.71,0,0,1-.23.18"/><path class="cls-4" d="M94,47.62a1,1,0,0,0-.29-.3.48.48,0,0,0-.29-.09.29.29,0,0,0-.21.06.21.21,0,0,0-.08.18c0,.09.09.22.27.41l.06.06a1.72,1.72,0,0,1,.37.46.78.78,0,0,1,.09.39.94.94,0,0,1-.4.73,1.49,1.49,0,0,1-.93.31.58.58,0,0,1-.37-.09.3.3,0,0,1-.14-.26.46.46,0,0,1,.09-.21,1,1,0,0,1,.22-.25,1.06,1.06,0,0,0,.29.36.56.56,0,0,0,.35.13.3.3,0,0,0,.21-.08.26.26,0,0,0,0-.37,1,1,0,0,0-.22-.24l0,0a1.21,1.21,0,0,1-.48-.85.9.9,0,0,1,.37-.72,1.45,1.45,0,0,1,.91-.31.67.67,0,0,1,.36.09.28.28,0,0,1,.12.25.42.42,0,0,1-.06.21.62.62,0,0,1-.24.18"/><path class="cls-4" d="M98.58,46.66l-.07,0a.74.74,0,0,0-.19-.43.66.66,0,0,0-.44-.14.54.54,0,0,0-.4.14.59.59,0,0,0-.14.39.48.48,0,0,0,.1.31,1.81,1.81,0,0,0,.41.39l.16.12c.5.38.76.75.76,1.1a1.14,1.14,0,0,1-.52,1,2,2,0,0,1-1.29.39,1.3,1.3,0,0,1-.6-.1q-.24-.1-.24-.28a.46.46,0,0,1,.14-.3,1.83,1.83,0,0,1,.38-.31l.07,0a.67.67,0,0,0,.21.5.64.64,0,0,0,.48.17.65.65,0,0,0,.48-.18.66.66,0,0,0,.18-.46c0-.28-.22-.58-.67-.92l-.14-.12a2.9,2.9,0,0,1-.48-.47.86.86,0,0,1-.1-.42,1.07,1.07,0,0,1,.45-.85,1.81,1.81,0,0,1,1.13-.36,1.52,1.52,0,0,1,.57.1.31.31,0,0,1,.21.28.4.4,0,0,1-.12.25,1.72,1.72,0,0,1-.35.27"/><path class="cls-4" d="M102,45.46a2,2,0,0,0-.34-.19,1.15,1.15,0,0,0-.3-.06c-.33,0-.6.69-.82,2.08-.05.38-.1.69-.15.91a5.77,5.77,0,0,1,.88-.94,1.26,1.26,0,0,1,.7-.35.21.21,0,0,1,.17.06c.05,0,.06.1.06.19a4.85,4.85,0,0,1-.14.9,5.19,5.19,0,0,0-.14,1,.35.35,0,0,0,0,.09.08.08,0,0,0,.06,0s.06,0,.11-.05l.17-.18.13.11a2.87,2.87,0,0,1-.57.58.81.81,0,0,1-.46.21.24.24,0,0,1-.19-.08.37.37,0,0,1-.06-.24,4.91,4.91,0,0,1,.14-.95,4.8,4.8,0,0,0,.13-.9.37.37,0,0,0,0-.1.16.16,0,0,0-.07,0c-.06,0-.17.07-.32.23a2.87,2.87,0,0,0-.4.54,2,2,0,0,0-.23.57,4.66,4.66,0,0,0-.14.72l-.4.14a3.55,3.55,0,0,1-.4.13c.11-.44.22-1.12.36-2a6.22,6.22,0,0,1,.48-1.88,2.47,2.47,0,0,1,.72-.79,1.51,1.51,0,0,1,.84-.32.44.44,0,0,1,.26.08.31.31,0,0,1,.1.22.32.32,0,0,1,0,.16.46.46,0,0,1-.12.18"/><path class="cls-4" d="M104.53,46.88a.75.75,0,0,1,.58.21,1,1,0,0,1,.17.62,2.09,2.09,0,0,1-.56,1.5,1.74,1.74,0,0,1-1.32.62.66.66,0,0,1-.53-.21.92.92,0,0,1-.18-.62,2.52,2.52,0,0,1,.17-.89,2.3,2.3,0,0,1,.48-.71,2,2,0,0,1,.58-.37,1.56,1.56,0,0,1,.61-.14m-.06.94a1,1,0,0,0-.09-.46.29.29,0,0,0-.27-.14c-.19,0-.34.14-.45.44a3.33,3.33,0,0,0-.17,1.21,1.14,1.14,0,0,0,.09.47.29.29,0,0,0,.27.15c.19,0,.34-.15.45-.45a3.74,3.74,0,0,0,.17-1.23"/><path class="cls-4" d="M106.73,48.2a5.78,5.78,0,0,1,.89-1,1.28,1.28,0,0,1,.71-.35.27.27,0,0,1,.26.15,1,1,0,0,1,.09.46,2.33,2.33,0,0,1-.27,1.09,2.35,2.35,0,0,1-.76.87,1.71,1.71,0,0,1-.52.27,1.86,1.86,0,0,1-.55.09h-.09a2.79,2.79,0,0,1-.76,1.61,2,2,0,0,1-1.42.58.84.84,0,0,1-.47-.1.32.32,0,0,1-.16-.28.81.81,0,0,1,0-.18l.13-.16a1.9,1.9,0,0,0,.44.3,1.06,1.06,0,0,0,.45.12.69.69,0,0,0,.56-.27,2.53,2.53,0,0,0,.37-.92c.05-.23.09-.48.15-.73s.08-.57.14-1,.09-.65.12-.8,0-.27,0-.35a.28.28,0,0,0,0-.12.08.08,0,0,0-.06,0,.31.31,0,0,0-.14.07l-.21.2-.13-.11a3.55,3.55,0,0,1,.64-.57,1,1,0,0,1,.49-.21.2.2,0,0,1,.17.07.42.42,0,0,1,.05.22,2.75,2.75,0,0,1,0,.41c0,.18-.07.39-.12.6m-.19,1.3.2.05h.16a.59.59,0,0,0,.4-.12,1,1,0,0,0,.29-.41,4,4,0,0,0,.19-.68,3.55,3.55,0,0,0,.08-.66.29.29,0,0,0,0-.15.13.13,0,0,0-.11-.05c-.17,0-.38.2-.66.61a4,4,0,0,0-.52,1.39"/><path class="cls-4" d="M110.1,48.2a5.25,5.25,0,0,1,.89-1,1.27,1.27,0,0,1,.73-.35.26.26,0,0,1,.25.15,1,1,0,0,1,.09.46,2.24,2.24,0,0,1-.27,1.09,2.21,2.21,0,0,1-.75.87,2.13,2.13,0,0,1-.52.27,1.9,1.9,0,0,1-.55.09h-.09a2.89,2.89,0,0,1-.76,1.61,2,2,0,0,1-1.43.58.83.83,0,0,1-.46-.1.31.31,0,0,1-.14-.28.53.53,0,0,1,0-.18.64.64,0,0,1,.13-.16,1.64,1.64,0,0,0,.44.3,1,1,0,0,0,.45.12.71.71,0,0,0,.57-.27,2.66,2.66,0,0,0,.37-.92c.06-.23.1-.48.14-.73s.09-.57.15-1,.08-.65.11-.8,0-.27,0-.35a.55.55,0,0,0,0-.12s0,0-.06,0a.37.37,0,0,0-.14.07,1.28,1.28,0,0,0-.2.2l-.13-.11a3.55,3.55,0,0,1,.64-.57,1,1,0,0,1,.48-.21.19.19,0,0,1,.17.07.32.32,0,0,1,.05.22,2.51,2.51,0,0,1,0,.41,5.68,5.68,0,0,1-.12.6m-.19,1.3.21.05h.14a.61.61,0,0,0,.4-.12A1,1,0,0,0,111,49a4,4,0,0,0,.19-.68,2.64,2.64,0,0,0,.08-.66.39.39,0,0,0,0-.15.13.13,0,0,0-.12-.05c-.17,0-.39.2-.65.61a3.63,3.63,0,0,0-.52,1.39"/><path class="cls-4" d="M113.82,48.83l.12.12a3.59,3.59,0,0,1-.62.65.88.88,0,0,1-.48.23.16.16,0,0,1-.16-.08.45.45,0,0,1-.06-.25,4.82,4.82,0,0,1,.15-.9,4.06,4.06,0,0,0,.14-.85.09.09,0,0,0,0-.08s0,0,0,0a.2.2,0,0,0-.13,0,1.32,1.32,0,0,0-.17.18l-.13-.12a4.41,4.41,0,0,1,.62-.64.81.81,0,0,1,.49-.24.2.2,0,0,1,.15.07.33.33,0,0,1,.05.2,4.71,4.71,0,0,1-.14.91,5.24,5.24,0,0,0-.13.88s0,.07,0,.09,0,0,.07,0a.21.21,0,0,0,.12-.06,1.71,1.71,0,0,0,.17-.18m-.3-3.24a.31.31,0,0,1,.24.09.37.37,0,0,1,.09.26.65.65,0,0,1-.14.4.41.41,0,0,1-.32.15.35.35,0,0,1-.25-.1.35.35,0,0,1-.09-.27.56.56,0,0,1,.13-.39.42.42,0,0,1,.33-.15"/><path class="cls-4" d="M114.44,49.86c.11-.47.2-.91.26-1.32a6.27,6.27,0,0,0,.09-.86.35.35,0,0,0,0-.11.08.08,0,0,0-.06,0,.35.35,0,0,0-.16.07,2.71,2.71,0,0,0-.2.19l-.12-.11a3.82,3.82,0,0,1,.62-.57,1,1,0,0,1,.49-.22.26.26,0,0,1,.18.08.32.32,0,0,1,.06.22,3,3,0,0,1,0,.43,6,6,0,0,1-.12.6,6,6,0,0,1,.88-.95,1.34,1.34,0,0,1,.72-.37.21.21,0,0,1,.15.08.27.27,0,0,1,.05.2,4.93,4.93,0,0,1-.14.9,5.94,5.94,0,0,0-.14,1,.17.17,0,0,0,0,.09s0,0,.06,0a.33.33,0,0,0,.1-.05l.18-.18.12.11a2.88,2.88,0,0,1-.57.58.83.83,0,0,1-.45.21.21.21,0,0,1-.19-.08.33.33,0,0,1-.07-.24,5.46,5.46,0,0,1,.13-.95,4.8,4.8,0,0,0,.13-.9.16.16,0,0,0,0-.1l0,0c-.09,0-.2.08-.35.23a3.11,3.11,0,0,0-.41.54,2.83,2.83,0,0,0-.22.56,4.86,4.86,0,0,0-.14.73l-.45.15-.35.12"/><path class="cls-4" d="M120.49,46.91a9.84,9.84,0,0,0-.37,1.8c-.09.71-.16,1.12-.17,1.25a3.24,3.24,0,0,1-.39,1.08,1.86,1.86,0,0,1-.67.67,1.75,1.75,0,0,1-.53.23,1.72,1.72,0,0,1-.54.09.83.83,0,0,1-.47-.1.3.3,0,0,1-.17-.28.53.53,0,0,1,0-.18.4.4,0,0,1,.12-.16,1.57,1.57,0,0,0,.44.31,1,1,0,0,0,.44.1c.5,0,.89-.87,1.14-2.61a3.74,3.74,0,0,1,.07-.47,4.63,4.63,0,0,1-.76.87,1.17,1.17,0,0,1-.64.32.29.29,0,0,1-.23-.1.52.52,0,0,1-.08-.32,2.88,2.88,0,0,1,.27-1.34,2,2,0,0,1,.86-.86,1.83,1.83,0,0,1,.53-.22,3.25,3.25,0,0,1,.74-.06h.36m-.84.46-.25,0-.19,0a.4.4,0,0,0-.27.08.48.48,0,0,0-.17.26,3.76,3.76,0,0,0-.2.72,3.27,3.27,0,0,0-.09.65.4.4,0,0,0,0,.16.1.1,0,0,0,.09.06c.14,0,.33-.19.58-.57a4,4,0,0,0,.47-1.31"/><path class="cls-4" d="M122.89,45.81l.76,0,.62,0c.38,0,.79,0,1.22,0l.21,0a.21.21,0,0,1,.12,0,.13.13,0,0,1,0,.12v0s0,0,0,0l-.15.66-.14,0,0-.18c0-.2-.38-.34-1.12-.4l-.17,0c0,.19-.1.41-.14.65s-.09.53-.14.87l.58,0,.53-.05.17-.37.18-.05c-.06.23-.12.45-.17.66a4.51,4.51,0,0,0-.07.6l-.16.09V48l-.55-.06-.53,0c0,.35-.09.65-.12.92s0,.5-.05.72h.16c1,0,1.51-.2,1.65-.49l.07-.13.17,0-.19.71a.34.34,0,0,1-.12.21.71.71,0,0,1-.32,0h-2.83l0-.16.48-.09c.13-.62.24-1.23.32-1.81s.14-1.13.17-1.65l-.5-.11Z"/><path class="cls-4" d="M125.89,49.32l.14,0h.07a.81.81,0,0,0,.51-.2,2.64,2.64,0,0,0,.51-.66,6.22,6.22,0,0,0-.22-.68c-.05-.12-.1-.18-.14-.18a.21.21,0,0,0-.14.06.81.81,0,0,0-.16.19l-.13-.11a3.44,3.44,0,0,1,.5-.64.67.67,0,0,1,.4-.24c.17,0,.31.31.44.92a2,2,0,0,0,0,.23,7.2,7.2,0,0,1,.65-.95.54.54,0,0,1,.37-.2A.29.29,0,0,1,129,47a.51.51,0,0,1,.09.3.2.2,0,0,0,0,.05s0,.05,0,.07h-.12a1,1,0,0,0-.6.2,2.31,2.31,0,0,0-.53.65v0c.14.55.27.83.37.83a.26.26,0,0,0,.14-.06,1.12,1.12,0,0,0,.17-.21l.12.12a3.36,3.36,0,0,1-.48.59.68.68,0,0,1-.42.21.33.33,0,0,1-.28-.19,6.49,6.49,0,0,1-.25-.88,5.69,5.69,0,0,1-.56.91.57.57,0,0,1-.41.23.28.28,0,0,1-.24-.1.47.47,0,0,1-.07-.29v-.14"/><path class="cls-4" d="M130.08,48.2a5,5,0,0,1,.88-1,1.26,1.26,0,0,1,.72-.35.25.25,0,0,1,.25.15.76.76,0,0,1,.09.46,2.41,2.41,0,0,1-.27,1.09,2.23,2.23,0,0,1-.76.87,2.18,2.18,0,0,1-.5.27,2,2,0,0,1-.56.09h-.08a2.84,2.84,0,0,1-.76,1.61,2,2,0,0,1-1.43.58.85.85,0,0,1-.46-.1.33.33,0,0,1-.17-.28.44.44,0,0,1,.05-.18.8.8,0,0,1,.12-.16,1.57,1.57,0,0,0,.45.3,1,1,0,0,0,.44.12.7.7,0,0,0,.56-.27,2.4,2.4,0,0,0,.37-.92c.05-.23.09-.48.15-.73s.09-.57.16-1,.08-.65.1-.8,0-.27,0-.35a.49.49,0,0,0,0-.12l0,0a.39.39,0,0,0-.17.07,1.72,1.72,0,0,0-.21.2l-.13-.11a3.56,3.56,0,0,1,.65-.57,1,1,0,0,1,.48-.21.2.2,0,0,1,.17.07.36.36,0,0,1,.06.22c0,.09,0,.23,0,.41s-.07.39-.12.6m-.19,1.3.19.05h.15a.64.64,0,0,0,.4-.12,1,1,0,0,0,.29-.41,4.07,4.07,0,0,0,.19-.68,3.1,3.1,0,0,0,.09-.66.39.39,0,0,0,0-.15.14.14,0,0,0-.12-.05c-.17,0-.39.2-.66.61a3.62,3.62,0,0,0-.5,1.39"/><path class="cls-4" d="M133.21,48.3a1.68,1.68,0,0,0,0,.28,1.32,1.32,0,0,0,0,.29.49.49,0,0,0,.08.31.27.27,0,0,0,.22.1.63.63,0,0,0,.37-.15,2.17,2.17,0,0,0,.44-.43l.15.13a3.32,3.32,0,0,1-.78.76,1.46,1.46,0,0,1-.76.26.48.48,0,0,1-.4-.16.82.82,0,0,1-.12-.5,2.56,2.56,0,0,1,.16-.88,2.44,2.44,0,0,1,.4-.75,2.71,2.71,0,0,1,.6-.48,1.3,1.3,0,0,1,.63-.19.43.43,0,0,1,.32.11.33.33,0,0,1,.13.29.82.82,0,0,1-.4.62,2.18,2.18,0,0,1-1,.39m0-.2a.7.7,0,0,0,.46-.16.53.53,0,0,0,.16-.39.29.29,0,0,0-.05-.2.16.16,0,0,0-.14-.06.24.24,0,0,0-.22.15,3.13,3.13,0,0,0-.21.66"/><path class="cls-4" d="M136.88,47.88a.7.7,0,0,0-.12-.18.17.17,0,0,0-.12,0c-.16,0-.33.19-.52.57a4.58,4.58,0,0,0-.38,1.37c-.1,0-.26.07-.44.14l-.35.12c.11-.47.19-.9.25-1.3a6.52,6.52,0,0,0,.1-.88.31.31,0,0,0,0-.13l0,0c-.06,0-.1,0-.18.07l-.21.2-.11-.11a3,3,0,0,1,.61-.57,1,1,0,0,1,.49-.22A.26.26,0,0,1,136,47a.44.44,0,0,1,.05.22,2.8,2.8,0,0,1,0,.43c0,.18-.08.4-.14.67h0a4.76,4.76,0,0,1,.63-1c.2-.26.38-.38.53-.38a.26.26,0,0,1,.19.09.33.33,0,0,1,.07.23.62.62,0,0,1-.13.36,1.25,1.25,0,0,1-.35.33"/><path class="cls-4" d="M138.82,48.83l.12.12a3.58,3.58,0,0,1-.61.65.93.93,0,0,1-.49.23.17.17,0,0,1-.16-.08.47.47,0,0,1,0-.25,4.94,4.94,0,0,1,.13-.9,3.9,3.9,0,0,0,.14-.85.1.1,0,0,0,0-.08s0,0-.05,0a.27.27,0,0,0-.14,0l-.17.18-.11-.12a3.75,3.75,0,0,1,.61-.64.82.82,0,0,1,.48-.24.2.2,0,0,1,.17.07.39.39,0,0,1,.05.2,4.72,4.72,0,0,1-.14.91,4.53,4.53,0,0,0-.13.88.16.16,0,0,0,0,.09.07.07,0,0,0,.06,0,.27.27,0,0,0,.13-.06s.1-.1.16-.18m-.29-3.24a.33.33,0,0,1,.24.09.34.34,0,0,1,.09.26.61.61,0,0,1-.14.4.42.42,0,0,1-.32.15.36.36,0,0,1-.25-.1.38.38,0,0,1-.09-.27.6.6,0,0,1,.14-.39.43.43,0,0,1,.33-.15"/><path class="cls-4" d="M140.19,48.3c0,.09,0,.18-.05.28s0,.19,0,.29a.54.54,0,0,0,.08.31.26.26,0,0,0,.22.1.6.6,0,0,0,.37-.15,2,2,0,0,0,.44-.43l.15.13a3.1,3.1,0,0,1-.79.76,1.38,1.38,0,0,1-.75.26.47.47,0,0,1-.4-.16.82.82,0,0,1-.13-.5,2.56,2.56,0,0,1,.16-.88,2.3,2.3,0,0,1,.41-.75,2.7,2.7,0,0,1,.6-.48,1.3,1.3,0,0,1,.63-.19.45.45,0,0,1,.32.11.34.34,0,0,1,.12.29.82.82,0,0,1-.4.62,2.12,2.12,0,0,1-1,.39m0-.2a.68.68,0,0,0,.45-.16.52.52,0,0,0,.17-.39.38.38,0,0,0-.06-.2.16.16,0,0,0-.14-.06.26.26,0,0,0-.23.15,2.61,2.61,0,0,0-.19.66"/><path class="cls-4" d="M141.91,49.86c.11-.47.19-.91.26-1.32a6.27,6.27,0,0,0,.09-.86.2.2,0,0,0,0-.11s0,0-.06,0a.32.32,0,0,0-.16.07,1.31,1.31,0,0,0-.19.19l-.12-.11a3.84,3.84,0,0,1,.63-.57.92.92,0,0,1,.48-.22A.26.26,0,0,1,143,47a.37.37,0,0,1,.06.22,2.24,2.24,0,0,1,0,.43,5.9,5.9,0,0,1-.11.6,5.1,5.1,0,0,1,.88-.95,1.34,1.34,0,0,1,.7-.37.19.19,0,0,1,.17.08.31.31,0,0,1,.06.2,5.67,5.67,0,0,1-.14.9,5.22,5.22,0,0,0-.14,1,.17.17,0,0,0,0,.09l0,0a.16.16,0,0,0,.13-.05,1.53,1.53,0,0,0,.18-.18l.13.11a3.59,3.59,0,0,1-.57.58.81.81,0,0,1-.47.21.21.21,0,0,1-.19-.08.37.37,0,0,1-.06-.24,5.44,5.44,0,0,1,.13-.95,5.8,5.8,0,0,0,.14-.9.35.35,0,0,0,0-.1.11.11,0,0,0-.07,0c-.06,0-.17.08-.32.23a3.07,3.07,0,0,0-.4.54,2.16,2.16,0,0,0-.22.56,3.53,3.53,0,0,0-.14.73l-.45.15-.35.12"/><path class="cls-4" d="M147,47.66a1.25,1.25,0,0,0-.25-.31.25.25,0,0,0-.18-.09c-.12,0-.24.16-.36.49a3.64,3.64,0,0,0-.15,1.09.62.62,0,0,0,.07.32.24.24,0,0,0,.22.09.6.6,0,0,0,.37-.14,3.12,3.12,0,0,0,.45-.43l.15.13a3.25,3.25,0,0,1-.79.75,1.42,1.42,0,0,1-.77.27.48.48,0,0,1-.4-.17.84.84,0,0,1-.13-.52,2.5,2.5,0,0,1,.16-.87,2.12,2.12,0,0,1,.42-.74,1.89,1.89,0,0,1,.62-.48,1.24,1.24,0,0,1,.62-.2.58.58,0,0,1,.35.1.26.26,0,0,1,.12.22.32.32,0,0,1-.11.23,2,2,0,0,1-.41.25"/><path class="cls-4" d="M148.54,48.3l0,.28c0,.1,0,.19,0,.29a.49.49,0,0,0,.08.31.24.24,0,0,0,.22.1.62.62,0,0,0,.37-.15,2.64,2.64,0,0,0,.45-.43l.14.13a3.21,3.21,0,0,1-.79.76,1.4,1.4,0,0,1-.75.26.43.43,0,0,1-.39-.16.77.77,0,0,1-.14-.5,2.56,2.56,0,0,1,.16-.88,2,2,0,0,1,1-1.22,1.26,1.26,0,0,1,.63-.19.46.46,0,0,1,.32.11.37.37,0,0,1,.12.29.83.83,0,0,1-.39.62,2.22,2.22,0,0,1-1,.39m0-.2a.65.65,0,0,0,.45-.16.49.49,0,0,0,.17-.39.33.33,0,0,0,0-.2.18.18,0,0,0-.14-.06.23.23,0,0,0-.22.15,2.84,2.84,0,0,0-.2.66"/><line class="cls-4" x1="64.19" y1="41.51" x2="149.97" y2="41.51"/><line class="cls-5" x1="64.19" y1="41.51" x2="149.97" y2="41.51"/></g></g></svg>